<?xml version="1.0" standalone="no"?>
<!DOCTYPE svg PUBLIC "-//W3C//DTD SVG 20010904//EN"
 "http://www.w3.org/TR/2001/REC-SVG-20010904/DTD/svg10.dtd">
<svg version="1.0" xmlns="http://www.w3.org/2000/svg"
 width="332.000000pt" height="332.000000pt" viewBox="0 0 332.000000 332.000000"
 preserveAspectRatio="xMidYMid meet">
<metadata>
Created by potrace 1.14, written by Peter Selinger 2001-2017
</metadata>
<g transform="translate(0.000000,332.000000) scale(0.100000,-0.100000)"
fill="#000000" stroke="none">
<path d="M2250 1665 l0 -1655 355 0 355 0 -2 1652 -3 1653 -352 3 -353 2 0
-1655z m280 1460 l0 -95 -95 0 -95 0 0 95 0 95 95 0 95 0 0 -95z m330 0 l0
-95 -95 0 -95 0 0 95 0 95 95 0 95 0 0 -95z m-330 -280 l0 -95 -95 0 -95 0 0
95 0 95 95 0 95 0 0 -95z m330 0 l0 -95 -95 0 -95 0 0 88 c0 49 3 92 7 95 3 4
46 7 95 7 l88 0 0 -95z m0 -285 l0 -90 -95 0 -95 0 0 90 0 90 95 0 95 0 0 -90z
m-330 -285 l0 -95 -95 0 -95 0 0 95 0 95 95 0 95 0 0 -95z m330 0 l0 -95 -95
0 -95 0 0 95 0 95 95 0 95 0 0 -95z m-330 -280 l0 -95 -95 0 -95 0 0 88 c0 49
3 92 7 95 3 4 46 7 95 7 l88 0 0 -95z m330 0 l0 -95 -95 0 -95 0 0 88 c0 49 3
92 7 95 3 4 46 7 95 7 l88 0 0 -95z m-330 -290 l0 -96 -92 3 -93 3 -3 93 -3
92 96 0 95 0 0 -95z"/>
<path d="M1300 1190 l0 -1180 355 0 355 0 0 1180 0 1180 -355 0 -355 0 0
-1180z m280 990 l0 -90 -90 0 -90 0 0 90 0 90 90 0 90 0 0 -90z m340 0 l0 -90
-95 0 -95 0 0 90 0 90 95 0 95 0 0 -90z m-340 -285 l0 -95 -90 0 -90 0 0 95 0
95 90 0 90 0 0 -95z m338 3 l-3 -93 -92 -3 -93 -3 0 96 0 95 95 0 96 0 -3 -92z
m-338 -283 l0 -95 -90 0 -90 0 0 95 0 95 90 0 90 0 0 -95z m338 -2 l3 -93 -96
0 -95 0 0 95 0 96 93 -3 92 -3 3 -92z"/>
<path d="M360 720 l0 -710 355 0 355 0 -2 708 -3 707 -352 3 -353 2 0 -710z
m280 515 l0 -95 -95 0 -95 0 0 95 0 95 95 0 95 0 0 -95z m330 0 l0 -95 -95 0
-95 0 0 95 0 95 95 0 95 0 0 -95z m-330 -280 l0 -95 -95 0 -95 0 0 88 c0 49 3
92 7 95 3 4 46 7 95 7 l88 0 0 -95z m330 0 l0 -95 -95 0 -95 0 0 88 c0 49 3
92 7 95 3 4 46 7 95 7 l88 0 0 -95z m0 -290 l0 -96 -92 3 -93 3 -3 93 -3 92
96 0 95 0 0 -95z"/>
</g>
</svg>
