<svg width="133" height="73" fill="none" xmlns="http://www.w3.org/2000/svg"><path fill="#F26226" d="M40.585.829h15v70h-15zM.585 40.829h15v30h-15zM20.585 20.829h15v50h-15z"/><path fill="#fff" d="M42.585 6.829h4v-4h-4zM49.585 6.829h4v-4h-4zM49.585 18.829h4v-4h-4zM42.585 30.829h4v-4h-4zM49.585 30.829h4v-4h-4zM42.585 12.829h4v-4h-4zM49.585 24.829h4v-4h-4zM42.585 24.829h4v-4h-4zM49.585 12.829h4v-4h-4zM42.585 36.829h4v-4h-4zM22.585 32.829h4v-4h-4zM22.585 38.829h4v-4h-4zM9.585 46.829h4v-4h-4zM9.585 52.829h4v-4h-4zM9.585 58.829h4v-4h-4zM29.585 26.829h4v-4h-4zM29.585 38.829h4v-4h-4zM29.585 32.829h4v-4h-4zM2.585 46.829h4v-4h-4zM2.585 52.829h4v-4h-4zM22.585 26.829h4v-4h-4zM72.886 55.629c0 2.507-.4 4.773-1.2 6.8-.747 2.026-1.84 3.76-3.28 5.2-1.387 1.386-3.094 2.453-5.12 3.2-2.027.8-4.294 1.2-6.8 1.2-2.027 0-3.92-.373-5.68-1.12a16.377 16.377 0 0 1-4.56-2.96 14.403 14.403 0 0 1-3.04-4.16c-.747-1.6-1.12-3.254-1.12-4.96 0-3.04.613-5.307 1.84-6.8 1.28-1.494 2.8-2.427 4.56-2.8l5.6 4.8c-5.334.8-8 3.6-8 8.4 0 1.013.24 2 .72 2.96s1.173 1.813 2.08 2.56c.906.746 2 1.36 3.28 1.84 1.28.427 2.72.64 4.32.64 1.28 0 2.506-.267 3.68-.8 1.173-.587 2.186-1.467 3.04-2.64.906-1.227 1.6-2.773 2.08-4.64.533-1.867.8-4.107.8-6.72v-38.8l-4.8-1.2v-.8h16.4v.8l-4.8 1.2v38.8zm11.618 13.2v-32.8l-4.8-1.2v-.8h11.2v34.8l4.8 1.2v.8h-16v-.8l4.8-1.2zm6.8-44c0 1.013-.426 1.947-1.28 2.8-.8.8-1.706 1.2-2.72 1.2-1.013 0-1.946-.4-2.8-1.2-.8-.854-1.2-1.787-1.2-2.8 0-1.014.4-1.92 1.2-2.72.854-.854 1.787-1.28 2.8-1.28 1.014 0 1.92.427 2.72 1.28.854.8 1.28 1.706 1.28 2.72zm25.982-9.6c-1.494 0-2.96.427-4.4 1.28-1.44.853-2.72 2.346-3.84 4.48-1.12 2.08-2.027 4.906-2.72 8.48-.694 3.52-1.04 7.973-1.04 13.36 0 5.386.346 9.867 1.04 13.44.693 3.52 1.626 6.346 2.8 8.48 1.173 2.08 2.533 3.547 4.08 4.4 1.546.853 3.173 1.28 4.88 1.28 1.386 0 2.8-.374 4.24-1.12 1.44-.747 2.746-1.787 3.92-3.12 1.226-1.333 2.24-2.907 3.04-4.72a17.924 17.924 0 0 0 1.6-5.84h1.2c-.214 2.4-.747 4.613-1.6 6.64-.854 1.973-1.947 3.706-3.28 5.2a13.762 13.762 0 0 1-4.48 3.36c-1.707.8-3.52 1.2-5.44 1.2-2.507 0-4.934-.587-7.28-1.76-2.347-1.227-4.454-3.04-6.32-5.44-1.814-2.453-3.28-5.493-4.4-9.12-1.067-3.68-1.6-7.974-1.6-12.88 0-4.907.533-9.173 1.6-12.8 1.12-3.68 2.56-6.72 4.32-9.12 1.813-2.453 3.84-4.267 6.08-5.44 2.24-1.227 4.506-1.84 6.8-1.84 1.28 0 2.426.213 3.44.64 1.066.426 1.973.906 2.72 1.44.853.587 1.6 1.253 2.24 2 .426-.8.986-1.547 1.68-2.24.746-.747 1.52-1.227 2.32-1.44h1.2a36.1 36.1 0 0 0-.24 2.4 237.77 237.77 0 0 0-.16 2.4v5.12c.053.853.106 1.653.16 2.4.053.853.133 1.68.24 2.48h-1.2c-1.227-4.427-2.88-7.787-4.96-10.08-2.027-2.347-4.24-3.52-6.64-3.52z"/></svg>