<svg width="69" height="87" fill="none" xmlns="http://www.w3.org/2000/svg"><path fill="#F26226" d="M49.581.561h18.483v86.256H49.581zM.292 49.85h18.483v36.967H.292zM24.936 25.205h18.483v61.611H24.936z"/><path fill="#fff" d="M52.045 7.954h4.93V3.025h-4.93zM60.67 7.954h4.93V3.025h-4.93zM60.67 22.741h4.93v-4.929h-4.93zM52.045 37.528h4.93v-4.93h-4.93zM60.67 37.528h4.93v-4.93h-4.93zM52.045 15.347h4.93v-4.929h-4.93zM60.67 30.134h4.93v-4.929h-4.93zM52.045 30.134h4.93v-4.929h-4.93zM60.67 15.347h4.93v-4.929h-4.93zM52.045 44.92h4.93v-4.928h-4.93zM27.4 39.992h4.93v-4.93H27.4zM27.4 47.386h4.93v-4.93H27.4zM11.382 57.243h4.929v-4.929h-4.93zM11.382 64.636h4.929v-4.928h-4.93zM11.382 72.03h4.929v-4.929h-4.93zM36.026 32.599h4.93v-4.93h-4.93zM36.026 47.386h4.93v-4.93h-4.93zM36.026 39.992h4.93v-4.93h-4.93zM2.756 57.243h4.93v-4.929h-4.93zM2.756 64.636h4.93v-4.928h-4.93zM27.4 32.599h4.93v-4.93H27.4z"/></svg>